<?xml version="1.0" encoding="UTF-8" standalone="no"?>
<!-- Created with Inkscape (http://www.inkscape.org/) -->

<svg
   version="1.1"
   id="svg1"
   width="512.37793"
   height="512.37793"
   viewBox="0 0 512.37793 512.37793"
   sodipodi:docname="logo.svg"
   inkscape:version="1.4.2 (ebf0e940d0, 2025-05-08)"
   xmlns:inkscape="http://www.inkscape.org/namespaces/inkscape"
   xmlns:sodipodi="http://sodipodi.sourceforge.net/DTD/sodipodi-0.dtd"
   xmlns="http://www.w3.org/2000/svg"
   xmlns:svg="http://www.w3.org/2000/svg">
  <defs
     id="defs1" />
  <sodipodi:namedview
     id="namedview1"
     pagecolor="#ffffff"
     bordercolor="#000000"
     borderopacity="0.25"
     inkscape:showpageshadow="2"
     inkscape:pageopacity="0.0"
     inkscape:pagecheckerboard="0"
     inkscape:deskcolor="#d1d1d1"
     inkscape:zoom="0.53654489"
     inkscape:cx="189.17336"
     inkscape:cy="640.20738"
     inkscape:window-width="1037"
     inkscape:window-height="995"
     inkscape:window-x="442"
     inkscape:window-y="48"
     inkscape:window-maximized="0"
     inkscape:current-layer="g1" />
  <g
     inkscape:groupmode="layer"
     inkscape:label="Logo"
     id="g1">
    <rect
       style="fill:#ffffff;stroke:#000000;stroke-width:0.377953;stroke-opacity:0"
       id="rect2"
       width="450"
       height="450"
       x="31.188976"
       y="31.188976"
       inkscape:label="white_fill" />
    <path
       style="fill:#000000;stroke-width:0.695932"
       d="m 37.282454,498.11437 c -12.67404,-1.81324 -22.97519,-11.64148 -25.3552,-24.19117 -1.02301,-5.39435 -0.96411,-429.825247 0.0604,-435.379697 2.23398,-12.11135 12.28034,-22.05646 24.26429,-24.01976 5.56814,-0.91222 434.417736,-0.8432 439.236636,0.0707 12.49862,2.37031 22.59284,12.46453 24.96315,24.96316 0.97594,5.14604 0.98641,429.188687 0.0107,434.416527 -2.07062,11.09478 -11.03743,20.60473 -22.23799,23.58501 -2.35867,0.62759 -55.2376,0.85168 -220.32315,0.93369 -119.47078,0.0594 -218.749296,-0.11096 -220.618906,-0.37845 z M 397.16035,421.36818 c 30.61121,-4.96495 46.85217,-23.04414 45.32799,-50.45845 -0.64287,-11.56286 -3.44953,-18.92235 -9.76162,-25.59646 -7.15027,-7.56036 -16.62185,-11.64255 -44.1141,-19.01289 -28.26558,-7.57767 -34.00104,-10.51855 -36.01982,-18.46931 -2.23189,-8.79005 3.01686,-16.47316 13.8334,-20.24932 5.59434,-1.95304 21.90366,-1.74646 29.26283,0.37065 6.74668,1.94092 15.36385,6.33307 19.32931,9.8521 l 2.94575,2.61413 10.97687,-9.71297 c 6.03728,-5.34212 11.16678,-10.02023 11.39889,-10.39577 0.90031,-1.45675 -7.47949,-8.4944 -15.08317,-12.66737 -6.0244,-3.30624 -17.5623,-7.08078 -26.05028,-8.52215 -8.43832,-1.43294 -26.08534,-1.59854 -34.09899,-0.31998 -13.60979,2.1714 -25.10658,7.43194 -32.79143,15.00422 -7.88446,7.76899 -11.31165,15.79783 -11.90228,27.88338 -0.9429,19.29411 5.90135,32.2978 21.14025,40.16524 8.72286,4.50339 13.49368,6.1833 34.2855,12.0727 19.32585,5.47416 26.60144,8.31014 30.81873,12.01297 7.39162,6.48993 5.60641,18.03894 -3.64747,23.59637 -5.46059,3.27936 -9.73145,4.39538 -18.41721,4.81263 -15.55018,0.74699 -33.31879,-4.44354 -45.23558,-13.21414 l -4.17559,-3.07318 -6.83818,6.33534 c -3.761,3.48443 -8.89988,8.22599 -11.41973,10.53679 l -4.58155,4.20146 4.50763,3.58683 c 12.27327,9.76613 26.66814,15.85479 44.08132,18.64526 7.86725,1.26073 28.46065,1.26181 36.22853,0.002 z m -218.60642,-21.06787 5.56427,-18.96414 h 34.18085 34.18085 l 0.7138,2.95771 c 0.39259,1.62674 2.34282,8.59476 4.33386,15.48449 1.99102,6.88972 4.08009,14.17091 4.64237,16.18041 l 1.02232,3.65365 h 18.03372 c 9.91855,0 18.17311,-0.23488 18.34347,-0.52195 0.17036,-0.28707 -1.50897,-6.159 -3.73183,-13.04873 -2.22287,-6.88972 -14.26563,-44.31347 -26.76168,-83.16387 -12.49605,-38.8504 -23.69711,-73.66707 -24.89123,-77.37037 -1.68839,-5.23614 -2.53617,-6.89961 -3.81279,-7.48127 -1.05536,-0.48086 -9.18292,-0.74799 -22.75773,-0.74799 -19.11219,0 -21.2492,0.11557 -22.51889,1.21788 -1.38594,1.20323 -3.12215,6.55937 -44.98241,138.76826 -7.10776,22.4487 -12.9232,41.16586 -12.9232,41.59368 0,0.55784 5.06307,0.72532 17.89999,0.59212 l 17.89999,-0.18573 z m 15.49556,-50.1071 c -0.23897,-0.43196 12.86156,-43.6835 21.76427,-71.85497 l 2.30924,-7.30729 3.03738,9.39508 c 4.39607,13.59777 21.11503,68.66205 21.11503,69.54284 0,0.86654 -47.74776,1.08865 -48.22592,0.22434 z M 89.726894,251.59265 c 1.03359,-0.54786 17.459426,-16.6051 36.501866,-35.68276 l 34.62261,-34.68667 v -3.1078 -3.10781 L 125.52518,139.68143 C 90.583224,104.73946 90.168804,104.35551 87.422914,104.37991 c -1.52685,0.0136 -3.43702,0.40501 -4.24483,0.86991 -2.49368,1.43511 -14.88566,14.99319 -14.88566,16.28644 0,0.67858 12.20614,13.44096 27.48411,28.73657 l 27.484096,27.51586 -27.178986,27.179 c -24.32303,24.32303 -27.18578,27.41773 -27.24359,29.45109 -0.0564,1.98547 0.84884,3.19465 7.17615,9.58502 8.7977,8.88537 10.00556,9.55382 13.71269,7.58885 z"
       id="path1"
       inkscape:export-filename="logo.png"
       inkscape:export-xdpi="96"
       inkscape:export-ydpi="96"
       inkscape:label="terminal" />
    <rect
       style="fill:none;stroke:#000000;stroke-width:0.377953;stroke-opacity:0"
       id="rect1"
       width="512"
       height="512"
       x="0.1889765"
       y="0.1889765"
       inkscape:label="outline" />
  </g>
</svg>
